# xmcd CD database file
#
# Track frame offsets:
#	150
#	19757
#	42125
#	61735
#
# Disc length: 1118 seconds
#
# Revision: 3
# Processed by: cddbd v1.5.1PL0 Copyright (c) Steve Scherf et al.
# Submitted via: CDex 1.60beta1
#
DISCID=26045c04
DTITLE=TYPE-MOON - hollow
DYEAR=2005
DGENRE=Soundtrack
TTITLE0=hollow
TTITLE1=僕たちの未来
TTITLE2=hollow (instrumental)
TTITLE3=僕たちの未来 (instrumental)
EXTD=YEAR: 2005
EXTT0=
EXTT1=
EXTT2=
EXTT3=
PLAYORDER=
